<?xml version="1.0" standalone="no"?>
<!DOCTYPE svg PUBLIC "-//W3C//DTD SVG 1.1//EN" "http://www.w3.org/Graphics/SVG/1.1/DTD/svg11.dtd" >
<svg xmlns="http://www.w3.org/2000/svg" xmlns:xlink="http://www.w3.org/1999/xlink" version="1.1">
<metadata>
Created by FontForge 20170910 at Sun Dec 20 17:12:20 1992
 By Jimmy Wärting
Copyright 1990-1993 Bitstream Inc.  All rights reserved.
</metadata>
<defs>
<font id="BellCentennialBT-Address" horiz-adv-x="909" >
  <font-face 
    font-family="BellCent Add BT"
    font-weight="400"
    font-stretch="semi-condensed"
    units-per-em="2048"
    panose-1="2 11 5 6 3 5 9 3 2 4"
    ascent="1638"
    descent="-410"
    x-height="995"
    cap-height="1337"
    bbox="-111 -483 2048 1882"
    underline-thickness="141"
    underline-position="-238"
    unicode-range="U+0020-F000"
  />
<missing-glyph horiz-adv-x="1229" 
d="M102 -362v1806h1024v-1806h-1024zM217 -248h795v1577h-795v-1577z" />
    <glyph glyph-name=".notdef" horiz-adv-x="1229" 
d="M102 -362v1806h1024v-1806h-1024zM217 -248h795v1577h-795v-1577z" />
    <glyph glyph-name=".null" horiz-adv-x="0" 
 />
    <glyph glyph-name="nonmarkingreturn" horiz-adv-x="455" 
 />
    <glyph glyph-name="space" unicode=" " horiz-adv-x="455" 
 />
    <glyph glyph-name="exclam" unicode="!" horiz-adv-x="455" 
d="M135 1337h184l-34 -975h-115zM119 0v203h217v-203h-217z" />
    <glyph glyph-name="quotedbl" unicode="&#x22;" horiz-adv-x="569" 
d="M473 1434v-553h-102v553h102zM199 1434v-553h-101v553h101z" />
    <glyph glyph-name="numbersign" unicode="#" horiz-adv-x="1575" 
d="M975 864h-266l-97 -276h267zM918 1454l-168 -483h264l172 483h127l-170 -483h315l-37 -107h-317l-98 -276h340l-37 -109h-340l-170 -479h-129l172 479h-269l-172 -479h-127l170 479h-327l39 109h325l101 276h-353l35 107h354l173 483h127z" />
    <glyph glyph-name="dollar" unicode="$" 
d="M410 1255q-84 -10 -135.5 -70.5t-51.5 -146.5q0 -106 46 -173t141 -99v489zM471 610v-495q97 21 153 89t56 165q0 86 -50.5 144.5t-158.5 96.5zM471 -109h-90v115q-89 11 -170.5 37.5t-161.5 71.5v149h103q42 -69 95.5 -104t133.5 -47v510q-158 62 -232.5 154.5
t-74.5 223.5q0 152 90.5 247.5t244.5 105.5l1 119h84v-119q73 -9 141 -34t133 -67v-145h-86q-36 62 -79.5 96.5t-108.5 50.5v-514q163 -43 244 -132.5t81 -227.5q0 -157 -95 -259t-253 -114v-117z" />
    <glyph glyph-name="ampersand" unicode="&#x26;" horiz-adv-x="1165" 
d="M518 778q91 64 130.5 126t39.5 140q0 100 -51 158t-137 58q-89 0 -143 -51.5t-54 -133.5q0 -73 43.5 -143.5t140.5 -153.5h31zM406 659q-88 -68 -124 -130t-36 -142q0 -130 77.5 -218.5t188.5 -88.5q65 0 134 35t147 108zM844 164q-68 -100 -153.5 -147.5t-198.5 -47.5
q-162 0 -270.5 111t-108.5 276q0 125 60 211t192 148v22q-98 77 -144.5 157.5t-46.5 172.5q0 133 87.5 215t227.5 82q141 0 235.5 -89.5t94.5 -221.5q0 -111 -74.5 -202.5t-199.5 -131.5v-14q80 -69 151.5 -153t139.5 -187h36v387h164v-76q0 -133 -30.5 -223.5t-96.5 -151.5
v-12l281 -289h-193z" />
    <glyph glyph-name="quotesingle" unicode="'" horiz-adv-x="295" 
d="M199 1434v-553h-101v553h101z" />
    <glyph glyph-name="parenleft" unicode="(" horiz-adv-x="569" 
d="M406 -334q-146 190 -217.5 401t-71.5 449t71.5 449t217.5 401h126v-29q-126 -167 -185.5 -365.5t-59.5 -455.5q0 -258 59.5 -457t185.5 -364v-29h-126z" />
    <glyph glyph-name="parenright" unicode=")" horiz-adv-x="569" 
d="M164 1366q146 -192 217.5 -402t71.5 -448t-71.5 -448t-217.5 -402h-129v29q127 168 187.5 367t60.5 454q0 256 -60.5 455.5t-187.5 365.5v29h129z" />
    <glyph glyph-name="asterisk" unicode="*" horiz-adv-x="1024" 
d="M305 541l-98 73l233 277v16l-325 84l39 113l305 -109l14 6l-22 365h122l-18 -365l14 -10l301 121l39 -121l-317 -88l-2 -14l241 -275l-94 -69l-211 301h-18z" />
    <glyph glyph-name="plus" unicode="+" horiz-adv-x="1706" 
d="M903 1221v-562h549v-98h-549v-561h-98v561h-551v98h551v562h98z" />
    <glyph glyph-name="comma" unicode="," horiz-adv-x="455" 
d="M92 -225q66 6 93.5 39t27.5 110v103h-94v180h219v-225q0 -169 -53.5 -232.5t-192.5 -68.5v94z" />
    <glyph glyph-name="hyphen" unicode="-" horiz-adv-x="569" 
d="M72 682h426v-141h-426v141z" />
    <glyph glyph-name="period" unicode="." horiz-adv-x="455" 
d="M119 0v203h217v-203h-217z" />
    <glyph glyph-name="slash" unicode="/" horiz-adv-x="883" 
d="M700 1393h129l-647 -1454h-131z" />
    <glyph glyph-name="zero" unicode="0" 
d="M455 1280q-121 0 -169 -119.5t-48 -435.5q0 -403 46 -522t169 -119q124 0 171.5 111.5t47.5 484.5q0 353 -48.5 476.5t-168.5 123.5zM825 653q0 -370 -84.5 -526t-279.5 -156q-203 0 -290 157t-87 534q0 417 84.5 575t292.5 158q201 0 282.5 -161t81.5 -581z" />
    <glyph glyph-name="one" unicode="1" 
d="M104 119h285v1128h-285v119h433v-1247h303v-119h-736v119z" />
    <glyph glyph-name="two" unicode="2" 
d="M244 973h-154v20q0 198 92 301t269 103q163 0 260.5 -100.5t97.5 -268.5q0 -129 -53.5 -244.5t-175.5 -246.5q-20 -21 -61 -63q-195 -200 -265 -361l27 -29q48 27 99 39t132 12h319v-135h-727v4q0 188 278 514l7 8l11 14q255 299 255 496q0 119 -55.5 182.5t-159.5 63.5
q-100 0 -148 -67t-48 -207v-35z" />
    <glyph glyph-name="three" unicode="3" 
d="M51 238h99q34 -72 93.5 -109t141.5 -37q106 0 178 79.5t72 197.5q0 132 -84 199t-250 69v139q151 8 228 77.5t77 197.5q0 101 -64.5 167t-162.5 66q-70 0 -122.5 -36t-86.5 -107h-92v159q90 48 172 71.5t158 23.5q162 0 262 -92.5t100 -241.5q0 -120 -71.5 -206.5
t-204.5 -125.5v-27q146 -19 227.5 -111t81.5 -239q0 -164 -117 -272.5t-299 -108.5q-93 0 -175 26t-161 81v160z" />
    <glyph glyph-name="four" unicode="4" 
d="M582 483l26 29q-13 69 -19.5 129.5t-6.5 114.5v225q0 58 6.5 128.5t19.5 158.5h-41q-52 -167 -155.5 -363t-243.5 -391l18 -33q43 15 95 22t135 7q61 0 96 -6.5t70 -20.5zM723 512h123v-119h-123v-393h-141v393h-535v121l467 852h209v-854z" />
    <glyph glyph-name="five" unicode="5" 
d="M88 238h94q17 -69 71 -107.5t134 -38.5q117 0 185.5 89.5t68.5 244.5q0 153 -63.5 234t-182.5 81q-42 0 -80 -14t-75 -43l-101 8v674h635v-131h-258q-61 0 -118 7.5t-113 23.5l-29 -25q13 -45 19 -103t6 -151q0 -40 -6 -71t-19 -64l33 -27q47 16 88.5 23.5t81.5 7.5
q153 0 252.5 -117t99.5 -301q0 -211 -114 -338t-304 -127q-78 0 -153 26t-152 79v160z" />
    <glyph glyph-name="six" unicode="6" 
d="M442 770q-106 0 -165.5 -80.5t-59.5 -226.5q0 -171 63 -269t173 -98q104 0 168.5 89t64.5 237q0 176 -60 262t-184 86zM729 1366v-45q-168 -110 -286.5 -241.5t-178.5 -274.5l27 -8q55 45 107.5 66.5t109.5 21.5q145 0 232 -119.5t87 -323.5q0 -214 -102.5 -342.5
t-269.5 -128.5q-169 0 -275 142t-106 370q0 244 121 474.5t344 408.5h190z" />
    <glyph glyph-name="seven" unicode="7" 
d="M70 0l524 1038q28 56 57.5 104.5t61.5 90.5l-19 29q-55 -16 -111 -23.5t-118 -7.5h-350v135h743v-98l-631 -1268h-157z" />
    <glyph glyph-name="eight" unicode="8" 
d="M532 745q73 73 105.5 140.5t32.5 144.5q0 120 -58.5 187t-160.5 67q-97 0 -155 -58.5t-58 -156.5q0 -109 70.5 -186.5t223.5 -137.5zM348 678q-69 -51 -105 -127t-36 -172q0 -129 71 -211t183 -82q106 0 171.5 66t65.5 174q0 115 -84.5 200.5t-265.5 151.5zM268 725
q-92 78 -136 160.5t-44 177.5q0 145 101 237.5t260 92.5q158 0 259 -97t101 -245q0 -102 -48 -181t-153 -147v-18q114 -62 173 -154t59 -209q0 -163 -107.5 -266t-277.5 -103q-180 0 -289 102.5t-109 266.5q0 102 50.5 190.5t160.5 178.5v14z" />
    <glyph glyph-name="nine" unicode="9" 
d="M467 596q108 0 167.5 80t59.5 225q0 171 -64 270t-173 99q-105 0 -169.5 -89.5t-64.5 -238.5q0 -176 60 -261t184 -85zM180 0v45q171 112 289 243t176 273l-24 8q-56 -46 -109.5 -68t-110.5 -22q-144 0 -231.5 120.5t-87.5 322.5q0 214 102.5 342.5t270.5 128.5
q169 0 275 -142t106 -370q0 -244 -120.5 -473t-344.5 -408h-191z" />
    <glyph glyph-name="colon" unicode=":" horiz-adv-x="541" 
d="M162 764v203h217v-203h-217zM162 0v203h217v-203h-217z" />
    <glyph glyph-name="semicolon" unicode=";" horiz-adv-x="541" 
d="M133 -225q66 6 93.5 39t27.5 110v103h-94v180h219v-225q0 -169 -53.5 -232.5t-192.5 -68.5v94zM162 764v203h217v-203h-217z" />
    <glyph glyph-name="less" unicode="&#x3c;" horiz-adv-x="1706" 
d="M1442 1026l-1022 -416l1022 -413v-109l-1178 481v82l1178 484v-109z" />
    <glyph glyph-name="equal" unicode="=" horiz-adv-x="1706" 
d="M1452 473v-98h-1198v98h1198zM1452 846v-98h-1198v98h1198z" />
    <glyph glyph-name="greater" unicode="&#x3e;" horiz-adv-x="1706" 
d="M1442 651v-82l-1178 -481v109l1022 413l-1022 416v109z" />
    <glyph glyph-name="question" unicode="?" 
d="M365 467q0 64 23 115.5t85 117.5q12 13 36 38q146 150 146 286q0 113 -52.5 171t-156.5 58q-89 0 -144.5 -58t-55.5 -153v-98h-145q-2 14 -2.5 28.5t-0.5 45.5q0 162 97 255t266 93q172 0 261 -87t89 -255q0 -170 -181 -355q-38 -38 -57 -59q-41 -46 -60 -93.5
t-19 -102.5q0 -16 3 -46q0 -4 1 -6h-133v105zM322 0v203h219v-203h-219z" />
    <glyph glyph-name="at" unicode="@" horiz-adv-x="2048" 
d="M1298 836l60 125h94l-139 -562q-10 -44 -13.5 -62.5t-3.5 -29.5q0 -43 28.5 -67.5t78.5 -24.5q52 0 106.5 21t104.5 61q97 77 151 204.5t54 282.5q0 254 -198 417t-509 163q-175 0 -320 -49.5t-262 -149.5q-147 -126 -222 -290.5t-75 -362.5q0 -174 60 -305t184 -232
q102 -82 244 -128t301 -46q171 0 334.5 49.5t300.5 143.5l39 -55q-147 -111 -311 -166.5t-343 -55.5q-191 0 -347 46.5t-275 138.5q-155 118 -229 273.5t-74 361.5q0 204 86 381.5t252 314.5q132 109 298.5 165t360.5 56q162 0 308 -44t249 -124q129 -99 194.5 -228
t65.5 -280q0 -171 -62 -309.5t-181 -232.5q-70 -54 -149 -82.5t-161 -28.5q-97 0 -144.5 37.5t-47.5 113.5q0 4 1 14t1 15q-51 -87 -127 -133.5t-168 -46.5q-153 0 -233 83.5t-80 244.5q0 230 135 388t329 158q94 0 158 -41t96 -122zM1210 469l62 248q-18 93 -75.5 145.5
t-139.5 52.5q-154 0 -254.5 -133.5t-100.5 -337.5q0 -111 55 -173t152 -62q107 0 189.5 71.5t111.5 188.5z" />
    <glyph glyph-name="A" unicode="A" horiz-adv-x="1024" 
d="M397 737l-71 -278h362l-74 278q-29 115 -49 232t-30 235h-64q-10 -129 -28 -245t-46 -222zM406 1337h208l353 -1337h-174l-91 340h-387l-96 -340h-162z" />
    <glyph glyph-name="B" unicode="B" horiz-adv-x="1024" 
d="M293 1220v-462q4 0 12 -1q64 -3 94 -3q171 0 250.5 56.5t79.5 178.5q0 120 -80.5 179t-242.5 59q-25 0 -54 -1.5t-59 -5.5zM293 639v-516q25 -2 51.5 -3t75.5 -1q193 0 279.5 59t86.5 189q0 138 -96 207t-289 69q-31 0 -102 -4h-6zM141 1337h277q237 0 353 -80t116 -243
q0 -108 -60.5 -185t-167.5 -104v-16q137 -40 208 -126.5t71 -213.5q0 -186 -124 -277.5t-376 -91.5h-297v1337z" />
    <glyph glyph-name="C" unicode="C" horiz-adv-x="995" 
d="M834 295h102v-193q-99 -68 -188 -99.5t-185 -31.5q-226 0 -351.5 185.5t-125.5 519.5q0 326 131.5 509t364.5 183q82 0 168 -30.5t186 -96.5v-186h-102q-46 101 -107.5 146.5t-151.5 45.5q-161 0 -245 -151.5t-84 -444.5q0 -268 86 -411.5t246 -143.5q94 0 157 49t99 150
z" />
    <glyph glyph-name="D" unicode="D" horiz-adv-x="1110" 
d="M293 115q4 -1 10 -1q54 -3 80 -3q257 0 370 132.5t113 436.5q0 289 -114.5 417t-372.5 128q-34 0 -52 -0.5t-34 -2.5v-1107zM141 1337h301q294 0 440 -166.5t146 -500.5q0 -339 -145 -504.5t-441 -165.5h-301v1337z" />
    <glyph glyph-name="E" unicode="E" 
d="M854 0h-713v1337h686v-114h-534v-453h506v-121h-506v-530h561v-119z" />
    <glyph glyph-name="F" unicode="F" horiz-adv-x="883" 
d="M141 0v1337h686v-114h-534v-453h508v-121h-508v-649h-152z" />
    <glyph glyph-name="G" unicode="G" horiz-adv-x="1110" 
d="M829 111h-20q-76 -70 -148.5 -105t-142.5 -35q-207 0 -320.5 182.5t-113.5 516.5q0 347 128.5 521.5t383.5 174.5q93 0 182.5 -29t188.5 -90v-188h-103q-45 100 -112 147t-164 47q-175 0 -259.5 -144t-84.5 -441q0 -285 77 -428.5t230 -143.5q78 0 142.5 33.5
t119.5 101.5v177q0 40 6.5 75.5t20.5 71.5h-348v119h475v-674h-138v111z" />
    <glyph glyph-name="H" unicode="H" horiz-adv-x="1139" 
d="M141 1337h152v-565h551v565h151v-1337h-151v645h-551v-645h-152v1337z" />
    <glyph glyph-name="I" unicode="I" horiz-adv-x="682" 
d="M418 100h209v-100h-570v100h209v1137h-209v100h570v-100h-209v-1137z" />
    <glyph glyph-name="J" unicode="J" horiz-adv-x="883" 
d="M82 401v150h151v-193q0 -144 39.5 -201t135.5 -57q93 0 133.5 62t40.5 209v966h151v-886q0 -283 -73 -381.5t-254 -98.5q-174 0 -249 97t-75 333z" />
    <glyph glyph-name="K" unicode="K" horiz-adv-x="995" 
d="M141 1337h144v-530q0 -56 -5 -99.5t-16 -86.5l21 -11l510 727h159l-278 -401q-12 -18 -46 -58t-89 -102l415 -776h-170l-241 463q-3 5 -9 17q-51 99 -65 182l-41 6l-145 -197v-471h-144v1337z" />
    <glyph glyph-name="L" unicode="L" horiz-adv-x="797" 
d="M768 0h-627v1337h152v-1218h475v-119z" />
    <glyph glyph-name="M" unicode="M" horiz-adv-x="1395" 
d="M125 1337h254l211 -743q24 -87 46 -185.5t42 -209.5h37q23 122 46 223t46 180l209 735h248v-1337h-146v801q0 23 6 110t23 322h-33l-356 -1233h-123l-361 1233h-30q13 -91 19.5 -183.5t6.5 -213.5v-41v-795h-145v1337z" />
    <glyph glyph-name="N" unicode="N" horiz-adv-x="1139" 
d="M141 1337h193l395 -774q39 -78 66 -159.5t45 -172.5h39q-13 122 -20 216t-7 151v739h143v-1337h-137l-469 938q-28 55 -51 127.5t-41 161.5h-35q10 -95 15.5 -180t5.5 -154v-893h-142v1337z" />
    <glyph glyph-name="O" unicode="O" horiz-adv-x="1139" 
d="M569 90q161 0 242.5 137t81.5 406q0 320 -78 467t-246 147q-164 0 -244.5 -143.5t-80.5 -433.5q0 -294 80.5 -437t244.5 -143zM571 1366q238 0 360 -174.5t122 -515.5q0 -352 -121 -528.5t-361 -176.5q-239 0 -362 178t-123 523q0 344 122.5 519t362.5 175z" />
    <glyph glyph-name="P" unicode="P" horiz-adv-x="995" 
d="M293 602h6q60 -4 86 -4q205 0 299 77.5t94 246.5q0 152 -94.5 226.5t-288.5 74.5q-29 0 -92 -4h-10v-617zM141 1337h291q257 0 381.5 -106.5t124.5 -327.5q0 -216 -131.5 -319t-407.5 -103q-16 0 -38.5 1l-67.5 3v-485h-152v1337z" />
    <glyph glyph-name="Q" unicode="Q" horiz-adv-x="1139" 
d="M813 201q44 69 63 159t19 252q0 333 -78 484t-248 151q-164 0 -244.5 -143.5t-80.5 -433.5q0 -293 83 -440.5t248 -147.5q34 0 73.5 8.5t92.5 28.5q-47 39 -81.5 71t-57.5 58l-133 145l102 94l131 -141q33 -34 60.5 -70t50.5 -75zM885 102q33 -20 62 -43t57 -53l88 -94
l-99 -100l-102 116q-3 4 -10 12q-48 54 -66 101q-65 -36 -125 -53t-123 -17q-236 0 -358.5 177.5t-122.5 523.5q0 343 123 518.5t362 175.5q237 0 359.5 -175t122.5 -515q0 -204 -40.5 -340t-127.5 -234z" />
    <glyph glyph-name="R" unicode="R" horiz-adv-x="1024" 
d="M293 666q13 -1 29.5 -1.5t48.5 -0.5q192 0 281 70t89 222q0 141 -84.5 206t-267.5 65q-26 0 -90 -4h-6v-557zM141 1337h322q213 0 330.5 -96.5t117.5 -271.5q0 -128 -72.5 -221t-211.5 -142l395 -606h-182l-342 545h-205v-545h-152v1337z" />
    <glyph glyph-name="S" unicode="S" horiz-adv-x="938" 
d="M76 256h112q46 -89 106 -128.5t150 -39.5q119 0 193 68.5t74 177.5q0 150 -259 273q-45 22 -69 34q-166 81 -232.5 167.5t-66.5 213.5q0 149 105.5 247.5t267.5 98.5q105 0 191.5 -27.5t162.5 -85.5v-168h-109q-44 84 -101 124t-130 40q-99 0 -165 -64.5t-66 -160.5
q0 -80 49 -138t164 -110q17 -8 51 -23q192 -85 252 -145q56 -56 85 -124t29 -142q0 -164 -125.5 -269.5t-324.5 -105.5q-87 0 -170.5 22.5t-173.5 69.5v195z" />
    <glyph glyph-name="T" unicode="T" 
d="M535 0h-152v1219h-356v118h856v-118h-348v-1219z" />
    <glyph glyph-name="U" unicode="U" horiz-adv-x="1110" 
d="M295 1337v-862q0 -214 59 -295.5t205 -81.5q140 0 202 74t62 242v123v800h144v-794q0 -138 -7.5 -217t-23.5 -125q-39 -113 -137 -171.5t-250 -58.5q-142 0 -233.5 56t-139.5 172q-19 46 -27 115t-8 245v778h154z" />
    <glyph glyph-name="V" unicode="V" horiz-adv-x="995" 
d="M29 1337h176l201 -823q13 -53 30 -146t39 -235h33q22 151 39.5 261.5t23.5 135.5l195 807h172l-375 -1337h-151z" />
    <glyph glyph-name="W" unicode="W" horiz-adv-x="1593" 
d="M51 1337h176l160 -796q25 -130 40.5 -217t29.5 -168h30q6 118 44 296q5 24 8 35l168 850h170l163 -841q20 -102 31.5 -183.5t18.5 -156.5h28q16 92 57 293q14 67 21 102l162 786h172l-336 -1337h-170l-166 869q-1 7 -5 25q-35 177 -44 277h-37q-12 -97 -46 -273
q-5 -27 -7 -39l-162 -859h-172z" />
    <glyph glyph-name="X" unicode="X" horiz-adv-x="995" 
d="M389 678l-334 659h176l158 -323q32 -66 56 -134.5t42 -140.5h35q24 85 47.5 151.5t44.5 115.5l148 331h164l-330 -659l338 -678h-166l-182 371q-41 81 -60 134t-30 109h-35q-14 -65 -35 -129.5t-51 -134.5l-152 -350h-172z" />
    <glyph glyph-name="Y" unicode="Y" horiz-adv-x="938" 
d="M401 477l-389 860h176l195 -477q3 -8 11 -26q58 -141 81 -244h31q17 83 34.5 151.5t32.5 109.5l183 486h170l-371 -860v-477h-154v477z" />
    <glyph glyph-name="Z" unicode="Z" horiz-adv-x="883" 
d="M43 104l582 1119h-549v114h737v-73l-594 -1145h594v-119h-770v104z" />
    <glyph glyph-name="asciicircum" unicode="^" horiz-adv-x="2048" 
d="M1094 1458l530 -557h-143l-457 455l-459 -455h-143l532 557h140z" />
    <glyph glyph-name="underscore" unicode="_" horiz-adv-x="1024" 
d="M1024 -383v-100h-1024v100h1024z" />
    <glyph glyph-name="grave" unicode="`" horiz-adv-x="1024" 
d="M248 1401h196q38 -69 90 -131.5t119 -118.5v-35h-104q-64 68 -140 126.5t-161 103.5v55z" />
    <glyph glyph-name="a" unicode="a" 
d="M645 535q-201 -17 -311.5 -85.5t-110.5 -177.5q0 -79 55 -128.5t146 -49.5q61 0 115 24t106 75v342zM647 84l-18 2q-59 -59 -119.5 -87t-130.5 -28q-127 0 -215 83t-88 202q0 157 143.5 250.5t421.5 116.5q1 11 1.5 24.5t0.5 38.5q0 119 -46 173t-148 54
q-82 0 -130.5 -33t-78.5 -110h-103v156q79 51 156.5 74.5t161.5 23.5q94 0 168 -33t118 -94q27 -37 38.5 -91t11.5 -181v-29v-55v-541h-144v84z" />
    <glyph glyph-name="b" unicode="b" 
d="M260 793v-592q49 -57 93.5 -83t92.5 -26q105 0 158 102.5t53 303.5q0 198 -53 299.5t-158 101.5q-49 0 -93.5 -25.5t-92.5 -80.5zM119 1395h141v-488l21 -6q45 62 97.5 91.5t119.5 29.5q139 0 223 -142t84 -380q0 -244 -83.5 -386.5t-223.5 -142.5q-68 0 -120.5 29
t-96.5 90l-21 -4v-86h-141v1395z" />
    <glyph glyph-name="c" unicode="c" horiz-adv-x="797" 
d="M715 758h-97q-29 76 -73 114.5t-101 38.5q-96 0 -151 -110.5t-55 -304.5t55 -303t151 -109q61 0 102.5 37.5t67.5 116.5h101v-142q-60 -64 -125 -94.5t-144 -30.5q-167 0 -262.5 139t-95.5 384q0 249 95.5 389.5t262.5 140.5q71 0 137.5 -30.5t131.5 -92.5v-143z" />
    <glyph glyph-name="d" unicode="d" 
d="M651 793q-47 55 -92 80.5t-94 25.5q-105 0 -159 -102t-54 -299q0 -200 54 -303t159 -103q48 0 93 26t93 83v592zM651 0v86l-22 4q-45 -62 -96.5 -90.5t-118.5 -28.5q-141 0 -225.5 143t-84.5 386q0 237 85.5 379.5t224.5 142.5q66 0 117.5 -29t97.5 -92l22 6v488h142
v-1395h-142z" />
    <glyph glyph-name="e" unicode="e" 
d="M819 94q-75 -65 -154.5 -94t-183.5 -29q-193 0 -294 133t-101 390q0 249 97.5 389.5t271.5 140.5q176 0 272 -139t96 -396v-38h-585v-25q0 -158 67 -248t184 -90q73 0 134.5 31.5t95.5 85.5h100v-111zM673 563q-7 167 -64 257.5t-154 90.5q-102 0 -157.5 -88.5
t-59.5 -259.5h435z" />
    <glyph glyph-name="f" unicode="f" horiz-adv-x="541" 
d="M176 877h-143v118h143q0 12 -1 52t-1 67q0 172 64 240.5t223 68.5q8 0 24.5 -1t24.5 -1v-116h-25q-91 0 -130.5 -39.5t-39.5 -130.5v-140h166v-118h-166v-877h-139v877z" />
    <glyph glyph-name="g" unicode="g" 
d="M629 201q-44 -61 -96.5 -90t-118.5 -29q-153 0 -238.5 122t-85.5 343q0 227 84.5 351t239.5 124q65 0 117.5 -29.5t97.5 -91.5l22 6v88h140v-964q0 -173 -84 -258.5t-252 -85.5q-85 0 -163 24t-155 74v160h101q36 -68 85.5 -97.5t125.5 -29.5q113 0 157.5 68t44.5 247v64
zM651 793q-49 56 -95.5 82t-100.5 26q-109 0 -162 -85t-53 -257q0 -185 52 -270.5t163 -85.5q54 0 101.5 25.5t94.5 80.5v484z" />
    <glyph glyph-name="h" unicode="h" 
d="M141 1395h142v-484l22 -4q41 58 93.5 85.5t123.5 27.5q134 0 202.5 -85t68.5 -251v-96v-588h-142v623q0 160 -37.5 221t-128.5 61q-55 0 -103.5 -26t-98.5 -82v-797h-142v1395z" />
    <glyph glyph-name="i" unicode="i" horiz-adv-x="426" 
d="M135 1395h156v-158h-156v158zM141 995h142v-995h-142v995z" />
    <glyph glyph-name="j" unicode="j" horiz-adv-x="426" 
d="M135 1395h154v-158h-154v158zM283 995v-1118q0 -101 -58.5 -146.5t-189.5 -45.5q-26 0 -40 0.5t-26 1.5v118q10 0 27.5 -1t23.5 -1q74 0 97.5 20.5t23.5 84.5v43v1044h142z" />
    <glyph glyph-name="k" unicode="k" horiz-adv-x="825" 
d="M141 1395h140v-615q0 -53 -3.5 -120t-11.5 -168l29 -9l354 512h164l-348 -442l323 -553h-155l-180 309q-24 41 -39 82.5t-23 85.5l-16 6l-94 -145v-338h-140v1395z" />
    <glyph glyph-name="l" unicode="l" horiz-adv-x="426" 
d="M141 1395h142v-1395h-142v1395z" />
    <glyph glyph-name="m" unicode="m" horiz-adv-x="1366" 
d="M137 995h142v-82l18 -6q40 59 91 86t120 27q77 0 131.5 -33t101.5 -108q74 75 134.5 109t119.5 34q125 0 191.5 -89.5t66.5 -256.5v-88v-588h-141v623q0 159 -38.5 220.5t-129.5 61.5q-60 0 -102 -24t-76 -78v-803h-141v623q0 158 -35.5 220t-118.5 62
q-55 0 -100.5 -25.5t-91.5 -82.5v-797h-142v995z" />
    <glyph glyph-name="n" unicode="n" 
d="M141 995h144v-82l20 -6q41 58 93.5 85.5t123.5 27.5q136 0 203.5 -86.5t67.5 -261.5v-84v-588h-144v623q0 162 -37 222t-127 60q-55 0 -103.5 -26t-96.5 -82v-797h-144v995z" />
    <glyph glyph-name="o" unicode="o" 
d="M455 911q-101 0 -160 -105.5t-59 -289.5q0 -211 56 -321.5t163 -110.5q104 0 161.5 108.5t57.5 305.5q0 194 -58.5 303.5t-160.5 109.5zM86 504q0 242 99 381t270 139q174 0 271 -138.5t97 -387.5q0 -254 -95 -390.5t-273 -136.5q-175 0 -272 140t-97 393z" />
    <glyph glyph-name="p" unicode="p" 
d="M260 201q49 -57 93.5 -83t92.5 -26q105 0 158 101.5t53 300.5q0 201 -53 303t-158 102q-49 0 -93.5 -25.5t-92.5 -80.5v-592zM119 995h141v-88l21 -6q45 62 97.5 91.5t119.5 29.5q140 0 223.5 -142.5t83.5 -385.5q0 -238 -84 -380.5t-223 -142.5q-68 0 -120.5 29
t-96.5 90l-21 -4v-399h-141v1308z" />
    <glyph glyph-name="q" unicode="q" 
d="M651 203v592q-48 56 -93 82t-93 26q-105 0 -159 -102.5t-54 -302.5q0 -198 54 -300t159 -102q49 0 94 25.5t92 81.5zM793 -313h-142v403l-22 4q-45 -62 -96.5 -90.5t-118.5 -28.5q-140 0 -225 142t-85 379q0 243 84.5 385.5t225.5 142.5q67 0 118.5 -28.5t96.5 -90.5
l22 4v86h142v-1308z" />
    <glyph glyph-name="r" unicode="r" horiz-adv-x="682" 
d="M141 995h142v-77q0 -38 -4 -61t-13 -46l25 -14q44 93 130 146.5t191 53.5h11l-1 -159q-104 -2 -183.5 -35t-155.5 -107v-696h-142v995z" />
    <glyph glyph-name="s" unicode="s" horiz-adv-x="825" 
d="M82 233h92q34 -67 94 -102t142 -35q89 0 143.5 46t54.5 120q0 115 -201 175q-71 22 -110 36q-88 31 -140.5 102t-52.5 158q0 126 91.5 207.5t234.5 81.5q81 0 150 -27t137 -86v-143h-94q-32 69 -83 104t-120 35q-79 0 -131.5 -46.5t-52.5 -115.5q0 -62 49 -103t176 -79
q158 -47 224.5 -112.5t66.5 -172.5q0 -137 -93.5 -220t-248.5 -83q-93 0 -180 31t-148 86v143z" />
    <glyph glyph-name="t" unicode="t" horiz-adv-x="569" 
d="M530 0h-155q-120 0 -165.5 51.5t-45.5 212.5v619h-121v112h121v314h141v-314h225v-112h-225v-619q0 -105 19.5 -125t109.5 -20h96v-119z" />
    <glyph glyph-name="u" unicode="u" 
d="M772 0h-141v82l-23 6q-41 -58 -93.5 -85.5t-123.5 -27.5q-91 0 -155.5 44.5t-96.5 130.5q-11 29 -15.5 77t-4.5 183v585h141v-622q0 -159 38.5 -221t129.5 -62q55 0 103.5 26t99.5 83v796h141v-995z" />
    <glyph glyph-name="v" unicode="v" horiz-adv-x="797" 
d="M43 995h158l137 -553q12 -48 26 -116.5t29 -155.5h25q14 98 26 168t21 102l131 555h158l-295 -995h-127z" />
    <glyph glyph-name="w" unicode="w" horiz-adv-x="1280" 
d="M37 995h160l168 -845h26l166 845h148l172 -845h24l170 845h164l-279 -995h-137l-174 766h-27l-169 -766h-136z" />
    <glyph glyph-name="x" unicode="x" horiz-adv-x="797" 
d="M279 489v23l-240 483h188l158 -444h23l178 444h166l-246 -483v-23l246 -489h-179l-163 451h-23l-176 -451h-172z" />
    <glyph glyph-name="y" unicode="y" horiz-adv-x="797" 
d="M43 -186q7 0 21 -1t20 -1q103 0 155.5 51t88.5 190l-279 942h156l188 -813h21l180 813h160l-289 -958q-61 -203 -143 -277.5t-234 -74.5q-7 0 -22 1t-23 1v127z" />
    <glyph glyph-name="z" unicode="z" horiz-adv-x="711" 
d="M68 119l442 758h-440v118h583v-133l-442 -743h467v-119h-610v119z" />
    <glyph glyph-name="braceleft" unicode="{" horiz-adv-x="1024" 
d="M854 1370h-37q-131 0 -177 -49.5t-46 -204.5v-242q0 -168 -43.5 -240t-153.5 -104q110 -31 153.5 -103t43.5 -241v-241q0 -155 45 -204.5t170 -49.5q7 0 22 1t23 1v-107h-47q-197 0 -266.5 72.5t-69.5 296.5v244q0 154 -57 217t-195 63q-7 0 -21.5 -1t-23.5 -1v109
q9 0 23.5 -1t21.5 -1q138 0 195 63t57 217v242q0 223 70 297t266 74h47v-107z" />
    <glyph glyph-name="bar" unicode="|" horiz-adv-x="1024" 
d="M567 1565v-2048h-108v2048h108z" />
    <glyph glyph-name="braceright" unicode="}" horiz-adv-x="1024" 
d="M555 1106v-242q0 -154 57 -217t195 -63q7 0 22 1t23 1v-109q-8 0 -23 1t-22 1q-138 0 -195 -63t-57 -217v-244q0 -223 -69.5 -296t-266.5 -73h-47v107h39q130 0 175.5 49t45.5 203v241q0 171 43 242t154 102q-111 32 -154 103t-43 241v242q0 157 -45 206.5t-170 49.5
q-7 0 -22 -1t-23 -1v107h47q196 0 266 -74t70 -297z" />
    <glyph glyph-name="asciitilde" unicode="~" horiz-adv-x="1706" 
d="M1530 637q-102 -72 -198 -107.5t-189 -35.5q-99 0 -260 57q-20 7 -29 10q-5 2 -16 6q-176 64 -273 64q-83 0 -175 -38t-212 -122v113q106 73 202 109t185 36q104 0 272 -61q11 -4 18 -7q9 -3 31 -11q167 -60 257 -60q85 0 177 38t210 122v-113z" />
    <glyph glyph-name="Adieresis" unicode="&#xc4;" horiz-adv-x="1024" 
d="M397 737l-71 -278h362l-74 278q-29 115 -49 232t-30 235h-64q-10 -129 -28 -245t-46 -222zM406 1337h208l353 -1337h-174l-91 340h-387l-96 -340h-162zM586 1772h170v-178h-170v178zM268 1772h170v-178h-170v178z" />
    <glyph glyph-name="Aring" unicode="&#xc5;" horiz-adv-x="1024" 
d="M397 737l-71 -278h362l-74 278q-29 115 -49 232t-30 235h-64q-10 -129 -28 -245t-46 -222zM406 1337h208l353 -1337h-174l-91 340h-387l-96 -340h-162zM512 1788q-43 0 -73.5 -30.5t-30.5 -73.5q0 -44 30.5 -75.5t73.5 -31.5t73.5 31.5t30.5 75.5q0 43 -30.5 73.5
t-73.5 30.5zM512 1882q81 0 140 -58.5t59 -139.5q0 -82 -59 -140.5t-140 -58.5q-82 0 -139.5 58t-57.5 141q0 82 57.5 140t139.5 58z" />
    <glyph glyph-name="Ccedilla" unicode="&#xc7;" horiz-adv-x="995" 
d="M834 295h102v-193q-99 -68 -188 -99.5t-185 -31.5q-226 0 -351.5 185.5t-125.5 519.5q0 326 131.5 509t364.5 183q82 0 168 -30.5t186 -96.5v-186h-102q-46 101 -107.5 146.5t-151.5 45.5q-161 0 -245 -151.5t-84 -444.5q0 -268 86 -411.5t246 -143.5q94 0 157 49t99 150
zM530 0h70v-96h22q105 0 160 -41t55 -119q0 -82 -60 -124t-179 -42q-41 0 -94 8.5t-142 30.5v80q81 -17 136 -25t96 -8q60 0 88 19.5t28 60.5q0 43 -30 63.5t-92 20.5q-18 0 -31 -0.5t-26 -1.5z" />
    <glyph glyph-name="Eacute" unicode="&#xc9;" 
d="M854 0h-713v1337h686v-114h-534v-453h506v-121h-506v-530h561v-119zM747 1774v-55q-84 -45 -160.5 -103.5t-140.5 -126.5h-104v35q62 52 114.5 114.5t94.5 135.5h196z" />
    <glyph glyph-name="Ntilde" unicode="&#xd1;" horiz-adv-x="1139" 
d="M141 1337h193l395 -774q39 -78 66 -159.5t45 -172.5h39q-13 122 -20 216t-7 151v739h143v-1337h-137l-469 938q-28 55 -51 127.5t-41 161.5h-35q10 -95 15.5 -180t5.5 -154v-893h-142v1337zM862 1731q-28 -98 -77.5 -148.5t-117.5 -50.5q-33 0 -88.5 17t-124.5 49
q-15 -12 -25.5 -30t-17.5 -42h-125q24 96 74 146.5t123 50.5q48 0 118 -30t91 -36q19 25 28 41t15 33h127z" />
    <glyph glyph-name="Odieresis" unicode="&#xd6;" horiz-adv-x="1139" 
d="M569 90q161 0 242.5 137t81.5 406q0 320 -78 467t-246 147q-164 0 -244.5 -143.5t-80.5 -433.5q0 -294 80.5 -437t244.5 -143zM571 1366q238 0 360 -174.5t122 -515.5q0 -352 -121 -528.5t-361 -176.5q-239 0 -362 178t-123 523q0 344 122.5 519t362.5 175zM643 1772h170
v-178h-170v178zM325 1772h170v-178h-170v178z" />
    <glyph glyph-name="Udieresis" unicode="&#xdc;" horiz-adv-x="1110" 
d="M295 1337v-862q0 -214 59 -295.5t205 -81.5q140 0 202 74t62 242v123v800h144v-794q0 -138 -7.5 -217t-23.5 -125q-39 -113 -137 -171.5t-250 -58.5q-142 0 -233.5 56t-139.5 172q-19 46 -27 115t-8 245v778h154zM629 1772h170v-178h-170v178zM311 1772h170v-178h-170
v178z" />
    <glyph glyph-name="aacute" unicode="&#xe1;" 
d="M645 535q-201 -17 -311.5 -85.5t-110.5 -177.5q0 -79 55 -128.5t146 -49.5q61 0 115 24t106 75v342zM647 84l-18 2q-59 -59 -119.5 -87t-130.5 -28q-127 0 -215 83t-88 202q0 157 143.5 250.5t421.5 116.5q1 11 1.5 24.5t0.5 38.5q0 119 -46 173t-148 54
q-82 0 -130.5 -33t-78.5 -110h-103v156q79 51 156.5 74.5t161.5 23.5q94 0 168 -33t118 -94q27 -37 38.5 -91t11.5 -181v-29v-55v-541h-144v84zM727 1401v-55q-84 -45 -160.5 -103.5t-140.5 -126.5h-104v35q62 52 114.5 114.5t94.5 135.5h196z" />
    <glyph glyph-name="agrave" unicode="&#xe0;" 
d="M645 535q-201 -17 -311.5 -85.5t-110.5 -177.5q0 -79 55 -128.5t146 -49.5q61 0 115 24t106 75v342zM647 84l-18 2q-59 -59 -119.5 -87t-130.5 -28q-127 0 -215 83t-88 202q0 157 143.5 250.5t421.5 116.5q1 11 1.5 24.5t0.5 38.5q0 119 -46 173t-148 54
q-82 0 -130.5 -33t-78.5 -110h-103v156q79 51 156.5 74.5t161.5 23.5q94 0 168 -33t118 -94q27 -37 38.5 -91t11.5 -181v-29v-55v-541h-144v84zM191 1401h196q38 -69 90 -131.5t119 -118.5v-35h-104q-64 68 -140 126.5t-161 103.5v55z" />
    <glyph glyph-name="acircumflex" unicode="&#xe2;" 
d="M645 535q-201 -17 -311.5 -85.5t-110.5 -177.5q0 -79 55 -128.5t146 -49.5q61 0 115 24t106 75v342zM647 84l-18 2q-59 -59 -119.5 -87t-130.5 -28q-127 0 -215 83t-88 202q0 157 143.5 250.5t421.5 116.5q1 11 1.5 24.5t0.5 38.5q0 119 -46 173t-148 54
q-82 0 -130.5 -33t-78.5 -110h-103v156q79 51 156.5 74.5t161.5 23.5q94 0 168 -33t118 -94q27 -37 38.5 -91t11.5 -181v-29v-55v-541h-144v84zM430 1303q-28 -73 -69 -118t-101 -69h-92v58q49 26 98 85.5t89 141.5h198q34 -75 82.5 -134.5t104.5 -92.5v-58h-90
q-60 24 -99.5 66.5t-70.5 120.5h-50z" />
    <glyph glyph-name="adieresis" unicode="&#xe4;" 
d="M645 535q-201 -17 -311.5 -85.5t-110.5 -177.5q0 -79 55 -128.5t146 -49.5q61 0 115 24t106 75v342zM647 84l-18 2q-59 -59 -119.5 -87t-130.5 -28q-127 0 -215 83t-88 202q0 157 143.5 250.5t421.5 116.5q1 11 1.5 24.5t0.5 38.5q0 119 -46 173t-148 54
q-82 0 -130.5 -33t-78.5 -110h-103v156q79 51 156.5 74.5t161.5 23.5q94 0 168 -33t118 -94q27 -37 38.5 -91t11.5 -181v-29v-55v-541h-144v84zM529 1399h170v-178h-170v178zM211 1399h170v-178h-170v178z" />
    <glyph glyph-name="atilde" unicode="&#xe3;" 
d="M645 535q-201 -17 -311.5 -85.5t-110.5 -177.5q0 -79 55 -128.5t146 -49.5q61 0 115 24t106 75v342zM647 84l-18 2q-59 -59 -119.5 -87t-130.5 -28q-127 0 -215 83t-88 202q0 157 143.5 250.5t421.5 116.5q1 11 1.5 24.5t0.5 38.5q0 119 -46 173t-148 54
q-82 0 -130.5 -33t-78.5 -110h-103v156q79 51 156.5 74.5t161.5 23.5q94 0 168 -33t118 -94q27 -37 38.5 -91t11.5 -181v-29v-55v-541h-144v84zM748 1358q-28 -98 -77.5 -148.5t-117.5 -50.5q-33 0 -88.5 17t-124.5 49q-15 -12 -25.5 -30t-17.5 -42h-125q24 96 74 146.5
t123 50.5q48 0 118 -30t91 -36q19 25 28 41t15 33h127z" />
    <glyph glyph-name="aring" unicode="&#xe5;" 
d="M645 535q-201 -17 -311.5 -85.5t-110.5 -177.5q0 -79 55 -128.5t146 -49.5q61 0 115 24t106 75v342zM647 84l-18 2q-59 -59 -119.5 -87t-130.5 -28q-127 0 -215 83t-88 202q0 157 143.5 250.5t421.5 116.5q1 11 1.5 24.5t0.5 38.5q0 119 -46 173t-148 54
q-82 0 -130.5 -33t-78.5 -110h-103v156q79 51 156.5 74.5t161.5 23.5q94 0 168 -33t118 -94q27 -37 38.5 -91t11.5 -181v-29v-55v-541h-144v84zM455 1415q-43 0 -73.5 -30.5t-30.5 -73.5q0 -44 30.5 -75.5t73.5 -31.5t73.5 31.5t30.5 75.5q0 43 -30.5 73.5t-73.5 30.5z
M455 1509q81 0 140 -58.5t59 -139.5q0 -82 -59 -140.5t-140 -58.5q-82 0 -139.5 58t-57.5 141q0 82 57.5 140t139.5 58z" />
    <glyph glyph-name="ccedilla" unicode="&#xe7;" horiz-adv-x="797" 
d="M715 758h-97q-29 76 -73 114.5t-101 38.5q-96 0 -151 -110.5t-55 -304.5t55 -303t151 -109q61 0 102.5 37.5t67.5 116.5h101v-142q-60 -64 -125 -94.5t-144 -30.5q-167 0 -262.5 139t-95.5 384q0 249 95.5 389.5t262.5 140.5q71 0 137.5 -30.5t131.5 -92.5v-143zM418 0
h70v-96h22q105 0 160 -41t55 -119q0 -82 -60 -124t-179 -42q-41 0 -94 8.5t-142 30.5v80q81 -17 136 -25t96 -8q60 0 88 19.5t28 60.5q0 43 -30 63.5t-92 20.5q-18 0 -31 -0.5t-26 -1.5z" />
    <glyph glyph-name="eacute" unicode="&#xe9;" 
d="M819 94q-75 -65 -154.5 -94t-183.5 -29q-193 0 -294 133t-101 390q0 249 97.5 389.5t271.5 140.5q176 0 272 -139t96 -396v-38h-585v-25q0 -158 67 -248t184 -90q73 0 134.5 31.5t95.5 85.5h100v-111zM673 563q-7 167 -64 257.5t-154 90.5q-102 0 -157.5 -88.5
t-59.5 -259.5h435zM727 1401v-55q-84 -45 -160.5 -103.5t-140.5 -126.5h-104v35q62 52 114.5 114.5t94.5 135.5h196z" />
    <glyph glyph-name="egrave" unicode="&#xe8;" 
d="M819 94q-75 -65 -154.5 -94t-183.5 -29q-193 0 -294 133t-101 390q0 249 97.5 389.5t271.5 140.5q176 0 272 -139t96 -396v-38h-585v-25q0 -158 67 -248t184 -90q73 0 134.5 31.5t95.5 85.5h100v-111zM673 563q-7 167 -64 257.5t-154 90.5q-102 0 -157.5 -88.5
t-59.5 -259.5h435zM191 1401h196q38 -69 90 -131.5t119 -118.5v-35h-104q-64 68 -140 126.5t-161 103.5v55z" />
    <glyph glyph-name="ecircumflex" unicode="&#xea;" 
d="M819 94q-75 -65 -154.5 -94t-183.5 -29q-193 0 -294 133t-101 390q0 249 97.5 389.5t271.5 140.5q176 0 272 -139t96 -396v-38h-585v-25q0 -158 67 -248t184 -90q73 0 134.5 31.5t95.5 85.5h100v-111zM673 563q-7 167 -64 257.5t-154 90.5q-102 0 -157.5 -88.5
t-59.5 -259.5h435zM430 1303q-28 -73 -69 -118t-101 -69h-92v58q49 26 98 85.5t89 141.5h198q34 -75 82.5 -134.5t104.5 -92.5v-58h-90q-60 24 -99.5 66.5t-70.5 120.5h-50z" />
    <glyph glyph-name="edieresis" unicode="&#xeb;" 
d="M819 94q-75 -65 -154.5 -94t-183.5 -29q-193 0 -294 133t-101 390q0 249 97.5 389.5t271.5 140.5q176 0 272 -139t96 -396v-38h-585v-25q0 -158 67 -248t184 -90q73 0 134.5 31.5t95.5 85.5h100v-111zM673 563q-7 167 -64 257.5t-154 90.5q-102 0 -157.5 -88.5
t-59.5 -259.5h435zM529 1399h170v-178h-170v178zM211 1399h170v-178h-170v178z" />
    <glyph glyph-name="iacute" unicode="&#xed;" horiz-adv-x="426" 
d="M141 995h144v-995h-144v995zM485 1401v-55q-84 -45 -160.5 -103.5t-140.5 -126.5h-104v35q62 52 114.5 114.5t94.5 135.5h196z" />
    <glyph glyph-name="igrave" unicode="&#xec;" horiz-adv-x="426" 
d="M141 995h144v-995h-144v995zM-51 1401h196q38 -69 90 -131.5t119 -118.5v-35h-104q-64 68 -140 126.5t-161 103.5v55z" />
    <glyph glyph-name="icircumflex" unicode="&#xee;" horiz-adv-x="426" 
d="M141 995h144v-995h-144v995zM188 1303q-28 -73 -69 -118t-101 -69h-92v58q49 26 98 85.5t89 141.5h198q34 -75 82.5 -134.5t104.5 -92.5v-58h-90q-60 24 -99.5 66.5t-70.5 120.5h-50z" />
    <glyph glyph-name="idieresis" unicode="&#xef;" horiz-adv-x="426" 
d="M141 995h144v-995h-144v995zM287 1399h170v-178h-170v178zM-31 1399h170v-178h-170v178z" />
    <glyph glyph-name="ntilde" unicode="&#xf1;" 
d="M141 995h144v-82l20 -6q41 58 93.5 85.5t123.5 27.5q136 0 203.5 -86.5t67.5 -261.5v-84v-588h-144v623q0 162 -37 222t-127 60q-55 0 -103.5 -26t-96.5 -82v-797h-144v995zM748 1358q-28 -98 -77.5 -148.5t-117.5 -50.5q-33 0 -88.5 17t-124.5 49q-15 -12 -25.5 -30
t-17.5 -42h-125q24 96 74 146.5t123 50.5q48 0 118 -30t91 -36q19 25 28 41t15 33h127z" />
    <glyph glyph-name="oacute" unicode="&#xf3;" 
d="M455 911q-101 0 -160 -105.5t-59 -289.5q0 -211 56 -321.5t163 -110.5q104 0 161.5 108.5t57.5 305.5q0 194 -58.5 303.5t-160.5 109.5zM86 504q0 242 99 381t270 139q174 0 271 -138.5t97 -387.5q0 -254 -95 -390.5t-273 -136.5q-175 0 -272 140t-97 393zM727 1401v-55
q-84 -45 -160.5 -103.5t-140.5 -126.5h-104v35q62 52 114.5 114.5t94.5 135.5h196z" />
    <glyph glyph-name="ograve" unicode="&#xf2;" 
d="M455 911q-101 0 -160 -105.5t-59 -289.5q0 -211 56 -321.5t163 -110.5q104 0 161.5 108.5t57.5 305.5q0 194 -58.5 303.5t-160.5 109.5zM86 504q0 242 99 381t270 139q174 0 271 -138.5t97 -387.5q0 -254 -95 -390.5t-273 -136.5q-175 0 -272 140t-97 393zM191 1401h196
q38 -69 90 -131.5t119 -118.5v-35h-104q-64 68 -140 126.5t-161 103.5v55z" />
    <glyph glyph-name="ocircumflex" unicode="&#xf4;" 
d="M455 911q-101 0 -160 -105.5t-59 -289.5q0 -211 56 -321.5t163 -110.5q104 0 161.5 108.5t57.5 305.5q0 194 -58.5 303.5t-160.5 109.5zM86 504q0 242 99 381t270 139q174 0 271 -138.5t97 -387.5q0 -254 -95 -390.5t-273 -136.5q-175 0 -272 140t-97 393zM430 1303
q-28 -73 -69 -118t-101 -69h-92v58q49 26 98 85.5t89 141.5h198q34 -75 82.5 -134.5t104.5 -92.5v-58h-90q-60 24 -99.5 66.5t-70.5 120.5h-50z" />
    <glyph glyph-name="odieresis" unicode="&#xf6;" 
d="M455 911q-101 0 -160 -105.5t-59 -289.5q0 -211 56 -321.5t163 -110.5q104 0 161.5 108.5t57.5 305.5q0 194 -58.5 303.5t-160.5 109.5zM86 504q0 242 99 381t270 139q174 0 271 -138.5t97 -387.5q0 -254 -95 -390.5t-273 -136.5q-175 0 -272 140t-97 393zM529 1399h170
v-178h-170v178zM211 1399h170v-178h-170v178z" />
    <glyph glyph-name="otilde" unicode="&#xf5;" 
d="M455 911q-101 0 -160 -105.5t-59 -289.5q0 -211 56 -321.5t163 -110.5q104 0 161.5 108.5t57.5 305.5q0 194 -58.5 303.5t-160.5 109.5zM86 504q0 242 99 381t270 139q174 0 271 -138.5t97 -387.5q0 -254 -95 -390.5t-273 -136.5q-175 0 -272 140t-97 393zM748 1358
q-28 -98 -77.5 -148.5t-117.5 -50.5q-33 0 -88.5 17t-124.5 49q-15 -12 -25.5 -30t-17.5 -42h-125q24 96 74 146.5t123 50.5q48 0 118 -30t91 -36q19 25 28 41t15 33h127z" />
    <glyph glyph-name="uacute" unicode="&#xfa;" 
d="M772 0h-141v82l-23 6q-41 -58 -93.5 -85.5t-123.5 -27.5q-91 0 -155.5 44.5t-96.5 130.5q-11 29 -15.5 77t-4.5 183v585h141v-622q0 -159 38.5 -221t129.5 -62q55 0 103.5 26t99.5 83v796h141v-995zM727 1401v-55q-84 -45 -160.5 -103.5t-140.5 -126.5h-104v35
q62 52 114.5 114.5t94.5 135.5h196z" />
    <glyph glyph-name="ugrave" unicode="&#xf9;" 
d="M772 0h-141v82l-23 6q-41 -58 -93.5 -85.5t-123.5 -27.5q-91 0 -155.5 44.5t-96.5 130.5q-11 29 -15.5 77t-4.5 183v585h141v-622q0 -159 38.5 -221t129.5 -62q55 0 103.5 26t99.5 83v796h141v-995zM191 1401h196q38 -69 90 -131.5t119 -118.5v-35h-104
q-64 68 -140 126.5t-161 103.5v55z" />
    <glyph glyph-name="ucircumflex" unicode="&#xfb;" 
d="M772 0h-141v82l-23 6q-41 -58 -93.5 -85.5t-123.5 -27.5q-91 0 -155.5 44.5t-96.5 130.5q-11 29 -15.5 77t-4.5 183v585h141v-622q0 -159 38.5 -221t129.5 -62q55 0 103.5 26t99.5 83v796h141v-995zM430 1303q-28 -73 -69 -118t-101 -69h-92v58q49 26 98 85.5t89 141.5
h198q34 -75 82.5 -134.5t104.5 -92.5v-58h-90q-60 24 -99.5 66.5t-70.5 120.5h-50z" />
    <glyph glyph-name="udieresis" unicode="&#xfc;" 
d="M772 0h-141v82l-23 6q-41 -58 -93.5 -85.5t-123.5 -27.5q-91 0 -155.5 44.5t-96.5 130.5q-11 29 -15.5 77t-4.5 183v585h141v-622q0 -159 38.5 -221t129.5 -62q55 0 103.5 26t99.5 83v796h141v-995zM529 1399h170v-178h-170v178zM211 1399h170v-178h-170v178z" />
    <glyph glyph-name="degree" unicode="&#xb0;" horiz-adv-x="674" 
d="M545 1174q0 86 -60.5 147t-146.5 61t-147.5 -61t-61.5 -147q0 -87 61 -147t148 -60t147 60t60 147zM338 1452q115 0 195.5 -81.5t80.5 -196.5t-81.5 -197t-196.5 -82q-117 0 -197 81t-80 198q0 116 81.5 197t197.5 81z" />
    <glyph glyph-name="cent" unicode="&#xa2;" 
d="M401 932q-73 -47 -109 -146.5t-36 -259.5q0 -161 37.5 -263.5t107.5 -135.5v805zM733 788h-96q-32 78 -62 109t-77 39v-817q51 10 82.5 44t52.5 103h100v-139q-57 -57 -113.5 -87.5t-121.5 -39.5v-117h-97v121q-145 33 -220 165.5t-75 356.5q0 223 76 357.5t219 167.5
v120h97v-120q59 -3 115 -32t120 -89v-142z" />
    <glyph glyph-name="sterling" unicode="&#xa3;" 
d="M76 111q74 62 106.5 136.5t32.5 184.5q0 12 -1 43.5t-1 50.5q0 21 4.5 46t13.5 55l-18 20q-20 -10 -40 -15t-44 -5h-70v110h76q18 0 36 -5.5t38 -16.5l18 22q-20 28 -29.5 96.5t-9.5 204.5q0 157 96 256t253 99q69 0 131.5 -16.5t126.5 -51.5v-164h-93q-29 67 -73 99
t-105 32q-91 0 -136.5 -62.5t-45.5 -189.5q0 -52 7 -124t7 -91q0 -23 -4.5 -44.5t-13.5 -41.5l16 -20q19 10 39 14t58 4h208v-110h-219q-19 0 -38.5 5.5t-40.5 16.5l-19 -20q15 -27 22 -55.5t7 -63.5q0 -145 -33 -235t-109 -160l27 -31q50 28 102 40.5t129 12.5h320v-137
h-731v111z" />
    <glyph glyph-name="bullet" unicode="&#x2022;" horiz-adv-x="1208" 
d="M307 762q0 123 87 209t210 86q122 0 208.5 -86.5t86.5 -208.5t-87.5 -209.5t-209.5 -87.5q-123 0 -209 87t-86 210z" />
    <glyph glyph-name="paragraph" unicode="&#xb6;" horiz-adv-x="1024" 
d="M940 1409h-127v-1409h-82v1409h-186v-1409h-84v782q-174 8 -275.5 102.5t-101.5 245.5q0 157 107.5 253t285.5 96h463v-70z" />
    <glyph glyph-name="registered" unicode="&#xae;" horiz-adv-x="1706" 
d="M850 1071h-158v-303h158q134 0 188 33.5t54 113.5q0 83 -57 119.5t-185 36.5zM874 1157q178 0 263.5 -57t85.5 -176q0 -89 -54 -149t-145 -73l188 -389h-145l-178 371h-197v-371h-127v844h309zM1505 721q0 134 -48 253t-138 210q-94 93 -213.5 142.5t-253.5 49.5
q-130 0 -246.5 -48t-208.5 -140q-95 -97 -145.5 -216.5t-50.5 -248.5t49.5 -247t142.5 -212q94 -93 212 -142.5t247 -49.5q130 0 250.5 50t216.5 144q91 89 138.5 204.5t47.5 250.5zM852 1456q152 0 285.5 -55t236.5 -160q102 -102 156.5 -235.5t54.5 -282.5
q0 -150 -53.5 -281t-157.5 -233q-107 -106 -242 -162.5t-280 -56.5q-147 0 -279.5 55.5t-236.5 161.5q-105 104 -160 237t-55 279q0 144 56.5 279.5t162.5 242.5q101 103 232 157t280 54z" />
    <glyph glyph-name="copyright" unicode="&#xa9;" horiz-adv-x="1706" 
d="M1073 915q-18 80 -75 124t-142 44q-122 0 -190 -95t-68 -267q0 -166 69 -260t189 -94q89 0 151 50.5t78 137.5h115q-11 -125 -108.5 -205t-241.5 -80q-177 0 -279 122t-102 335q0 203 107.5 326t283.5 123q135 0 226.5 -72t103.5 -189h-117zM1505 723q0 132 -48.5 251
t-139.5 210q-94 94 -213 143t-252 49q-132 0 -249 -48t-208 -140q-94 -96 -144 -215.5t-50 -249.5q0 -129 49.5 -247t142.5 -212q94 -93 212 -142.5t247 -49.5q130 0 250.5 50t216.5 144q91 89 138.5 206t47.5 251zM852 1456q149 0 283.5 -55.5t238.5 -159.5
q102 -102 156.5 -235.5t54.5 -282.5q0 -150 -53.5 -281t-157.5 -233q-107 -106 -242 -162.5t-280 -56.5t-278 55.5t-238 161.5q-105 104 -160 237t-55 279q0 145 56.5 279.5t162.5 242.5q101 103 232 157t280 54z" />
    <glyph glyph-name="trademark" unicode="&#x2122;" horiz-adv-x="1706" 
d="M938 1454l166 -422l156 422h116v-530h-71v467l-177 -467h-49l-186 467v-467h-72v530h117zM694 1454v-57h-172v-473h-82v473h-176v57h430z" />
    <glyph glyph-name="acute" unicode="&#xb4;" horiz-adv-x="1024" 
d="M784 1401v-55q-84 -45 -160.5 -103.5t-140.5 -126.5h-104v35q62 52 114.5 114.5t94.5 135.5h196z" />
    <glyph glyph-name="dieresis" unicode="&#xa8;" horiz-adv-x="1024" 
d="M586 1399h170v-178h-170v178zM268 1399h170v-178h-170v178z" />
    <glyph glyph-name="notequal" unicode="&#x2260;" horiz-adv-x="1706" 
d="M1288 1110l-205 -264h369v-96h-432l-215 -277h647v-98h-709l-254 -324l-73 60l205 264h-367v98h428l215 277h-643v96h707l253 323z" />
    <glyph glyph-name="infinity" unicode="&#x221e;" horiz-adv-x="1706" 
d="M897 559q52 -100 122 -149.5t159 -49.5q106 0 173.5 75t67.5 192q0 113 -62.5 187.5t-156.5 74.5q-86 0 -155 -74t-148 -256zM811 668q-52 99 -121.5 147.5t-159.5 48.5q-106 0 -173.5 -74.5t-67.5 -189.5q0 -112 63 -187t156 -75q87 0 156.5 75t146.5 255zM838 721
q72 144 149 206t182 62q124 0 215 -107.5t91 -265.5q0 -169 -81.5 -273.5t-211.5 -104.5q-95 0 -168 60.5t-146 203.5q-71 -139 -148 -201.5t-173 -62.5q-132 0 -223 106.5t-91 267.5q0 169 81.5 273t211.5 104q97 0 171.5 -64t140.5 -204z" />
    <glyph glyph-name="plusminus" unicode="&#xb1;" horiz-adv-x="1706" 
d="M1452 150v-99h-1198v99h1198zM903 1169v-348h549v-98h-549v-348h-98v348h-551v98h551v348h98z" />
    <glyph glyph-name="lessequal" unicode="&#x2264;" horiz-adv-x="1706" 
d="M1442 139v-98h-1178v98h1178zM1442 1075l-1010 -338l1010 -336v-106l-1178 401v84l1178 402v-107z" />
    <glyph glyph-name="greaterequal" unicode="&#x2265;" horiz-adv-x="1706" 
d="M1442 139v-98h-1178v98h1178zM1442 780v-84l-1178 -401v106l1010 336l-1010 338v107z" />
    <glyph glyph-name="mu" unicode="&#xb5;" horiz-adv-x="1110" 
d="M344 1065l-125 -592q-8 -39 -12 -73t-4 -66q0 -117 58 -180.5t167 -63.5q125 0 215 107.5t133 310.5l121 557h139l-164 -770q-12 -55 -17 -85t-5 -48q0 -33 17 -49.5t51 -16.5q7 0 16.5 0.5t19.5 1.5l-20 -110q-19 -5 -41 -8t-45 -3q-70 0 -103.5 36t-33.5 110v14
q-42 -77 -120 -119.5t-179 -42.5q-92 0 -161 40t-108 116l-114 -557h-140l316 1491h139z" />
    <glyph glyph-name="partialdiff" unicode="&#x2202;" horiz-adv-x="1034" 
d="M752 592q12 83 18 160t6 149q0 158 -40 242t-115 84q-50 0 -108 -68.5t-103 -68.5q-31 0 -52.5 20t-21.5 47q0 62 63.5 107t155.5 45q165 0 264 -150.5t99 -406.5q0 -334 -136 -556.5t-333 -222.5q-143 0 -233.5 107t-90.5 278q0 179 109 304.5t262 125.5q98 0 160.5 -48
t95.5 -148zM711 463q0 128 -45 193t-134 65q-113 0 -186.5 -124.5t-73.5 -322.5q0 -126 44.5 -188.5t134.5 -62.5q112 0 186 125.5t74 314.5z" />
    <glyph glyph-name="summation" unicode="&#x2211;" horiz-adv-x="1317" 
d="M49 1473h1223v-144h-1014l705 -766l-740 -813h1057v-143h-1266v133l744 821l-709 772v140z" />
    <glyph glyph-name="product" unicode="&#x220f;" horiz-adv-x="1509" 
d="M160 1473h1188v-1866h-168v1718h-852v-1718h-168v1866z" />
    <glyph glyph-name="pi" unicode="&#x3c0;" horiz-adv-x="1171" 
d="M1120 944h-182l-115 -541q-15 -69 -22.5 -117t-7.5 -71q0 -58 25 -82t85 -24q29 0 51 2.5t41 6.5l-26 -118q-28 -8 -53.5 -12t-47.5 -4q-101 0 -157 53t-56 149q0 46 11 118t45 233l86 407h-365l-199 -944h-139l199 944h-39q-55 0 -85.5 -31.5t-41.5 -99.5h-131
q25 143 88 197.5t215 54.5h848z" />
    <glyph glyph-name="integral" unicode="&#x222b;" horiz-adv-x="985" 
d="M293 -272q104 0 117 713q2 127 4 196q11 486 98 698.5t268 212.5q70 0 114 -37t44 -96q0 -48 -28.5 -76t-78.5 -28q-78 0 -103 69.5t-34 69.5q-105 0 -116 -623q-4 -185 -7 -289q-15 -497 -101 -703t-267 -206q-69 0 -113.5 36t-44.5 91q0 51 31 81t82 30
q36 0 61.5 -16.5t40.5 -51.5q4 -9 7 -33q4 -38 26 -38z" />
    <glyph glyph-name="ordfeminine" unicode="&#xaa;" horiz-adv-x="682" 
d="M483 1016q-151 -12 -233 -60t-82 -125q0 -55 41 -89.5t108 -34.5q48 0 88.5 17t77.5 52v240zM485 700h-14q-44 -40 -89.5 -59.5t-96.5 -19.5q-95 0 -161.5 58.5t-66.5 141.5q0 109 108 174.5t316 81.5q1 8 1.5 18t0.5 27q0 83 -35 120.5t-112 37.5q-60 0 -96.5 -23.5
t-59.5 -76.5h-78v108q61 36 119.5 53t120.5 17q71 0 126.5 -23t88.5 -65q20 -27 28.5 -65.5t8.5 -125.5v-20v-39v-379h-109v59z" />
    <glyph glyph-name="ordmasculine" unicode="&#xba;" horiz-adv-x="682" 
d="M342 1280q-76 0 -121 -74.5t-45 -204.5q0 -147 42.5 -224t123.5 -77q78 0 121 76t43 213t-44 214t-120 77zM66 993q0 171 73.5 268t202.5 97q131 0 203.5 -97t72.5 -272q0 -177 -71.5 -272.5t-204.5 -95.5q-131 0 -203.5 97.5t-72.5 274.5z" />
    <glyph glyph-name="Omega" unicode="&#x3a9;" horiz-adv-x="1579" 
d="M1462 139v-139h-581v127q207 124 313 293.5t106 374.5q0 260 -141.5 420.5t-367.5 160.5q-228 0 -370 -160t-142 -419q0 -207 106.5 -377.5t312.5 -292.5v-127h-581v139h344q-173 133 -256.5 291.5t-83.5 353.5q0 320 188.5 524.5t481.5 204.5q291 0 480 -203.5
t189 -523.5q0 -196 -83.5 -354t-258.5 -293h344z" />
    <glyph glyph-name="logicalnot" unicode="&#xac;" horiz-adv-x="1706" 
d="M1452 858v-502h-96v402h-1102v100h1198z" />
    <glyph glyph-name="radical" unicode="&#x221a;" horiz-adv-x="1276" 
d="M1276 1636v-71h-125l-594 -1606h-41l-328 899l-114 -39l-19 58l246 86l272 -746l525 1419h178z" />
    <glyph glyph-name="approxequal" unicode="&#x2248;" horiz-adv-x="1706" 
d="M1530 469q-106 -74 -201 -109.5t-186 -35.5q-101 0 -291 69.5t-287 69.5q-82 0 -171 -36.5t-216 -123.5v111q107 74 202 109.5t185 35.5q109 0 298.5 -68.5t279.5 -68.5q86 0 175 35.5t212 122.5v-111zM1530 807q-104 -74 -199 -109.5t-188 -35.5q-103 0 -292 69.5
t-286 69.5q-82 0 -171 -36.5t-216 -123.5v113q105 73 201 109t186 36q109 0 298.5 -69.5t279.5 -69.5q84 0 171 34.5t216 123.5v-111z" />
    <glyph glyph-name="Delta" unicode="&#x2206;" horiz-adv-x="1346" 
d="M1139 139l-467 1186l-465 -1186h932zM766 1473l590 -1473h-1366l590 1473h186z" />
    <glyph glyph-name="ellipsis" unicode="&#x2026;" horiz-adv-x="2048" 
d="M234 0v203h217v-203h-217zM916 0v203h217v-203h-217zM1600 0v203h217v-203h-217z" />
    <glyph glyph-name="nonbreakingspace" unicode="&#xa0;" 
 />
    <glyph glyph-name="Agrave" unicode="&#xc0;" horiz-adv-x="1024" 
d="M397 737l-71 -278h362l-74 278q-29 115 -49 232t-30 235h-64q-10 -129 -28 -245t-46 -222zM406 1337h208l353 -1337h-174l-91 340h-387l-96 -340h-162zM248 1774h196q38 -69 90 -131.5t119 -118.5v-35h-104q-64 68 -140 126.5t-161 103.5v55z" />
    <glyph glyph-name="Atilde" unicode="&#xc3;" horiz-adv-x="1024" 
d="M397 737l-71 -278h362l-74 278q-29 115 -49 232t-30 235h-64q-10 -129 -28 -245t-46 -222zM406 1337h208l353 -1337h-174l-91 340h-387l-96 -340h-162zM805 1731q-28 -98 -77.5 -148.5t-117.5 -50.5q-33 0 -88.5 17t-124.5 49q-15 -12 -25.5 -30t-17.5 -42h-125
q24 96 74 146.5t123 50.5q48 0 118 -30t91 -36q19 25 28 41t15 33h127z" />
    <glyph glyph-name="Otilde" unicode="&#xd5;" horiz-adv-x="1139" 
d="M569 90q161 0 242.5 137t81.5 406q0 320 -78 467t-246 147q-164 0 -244.5 -143.5t-80.5 -433.5q0 -294 80.5 -437t244.5 -143zM571 1366q238 0 360 -174.5t122 -515.5q0 -352 -121 -528.5t-361 -176.5q-239 0 -362 178t-123 523q0 344 122.5 519t362.5 175zM862 1731
q-28 -98 -77.5 -148.5t-117.5 -50.5q-33 0 -88.5 17t-124.5 49q-15 -12 -25.5 -30t-17.5 -42h-125q24 96 74 146.5t123 50.5q48 0 118 -30t91 -36q19 25 28 41t15 33h127z" />
    <glyph glyph-name="endash" unicode="&#x2013;" horiz-adv-x="1024" 
d="M0 682h1024v-141h-1024v141z" />
    <glyph glyph-name="emdash" unicode="&#x2014;" horiz-adv-x="2048" 
d="M0 682h2048v-141h-2048v141z" />
    <glyph glyph-name="quoteleft" unicode="&#x2018;" horiz-adv-x="455" 
d="M117 1112v225h219v-180h-94v-100q0 -77 28 -111.5t95 -40.5v-94q-140 6 -194 69.5t-54 231.5z" />
    <glyph glyph-name="quoteright" unicode="&#x2019;" horiz-adv-x="455" 
d="M92 905q66 6 93.5 40t27.5 112v100h-94v180h219v-225q0 -168 -53.5 -231.5t-192.5 -69.5v94z" />
    <glyph glyph-name="divide" unicode="&#xf7;" horiz-adv-x="1706" 
d="M854 365q45 0 76 -31t31 -76q0 -44 -31 -75t-76 -31t-75.5 31t-30.5 75t31 75.5t75 31.5zM1452 659v-98h-1198v98h1198zM854 1071q44 0 75.5 -32t31.5 -76q0 -45 -31 -76t-76 -31t-75.5 30.5t-30.5 76.5q0 44 31.5 76t74.5 32z" />
    <glyph glyph-name="lozenge" unicode="&#x25ca;" horiz-adv-x="1012" 
d="M506 1409l-385 -817l385 -825l385 825zM506 1653l500 -1061l-500 -1069l-500 1069z" />
    <glyph glyph-name="ydieresis" unicode="&#xff;" horiz-adv-x="797" 
d="M43 -186q7 0 21 -1t20 -1q103 0 155.5 51t88.5 190l-279 942h156l188 -813h21l180 813h160l-289 -958q-61 -203 -143 -277.5t-234 -74.5q-7 0 -22 1t-23 1v127zM473 1399h170v-178h-170v178zM155 1399h170v-178h-170v178z" />
    <glyph glyph-name="Ydieresis" unicode="&#x178;" horiz-adv-x="938" 
d="M401 477l-389 860h176l195 -477q3 -8 11 -26q58 -141 81 -244h31q17 83 34.5 151.5t32.5 109.5l183 486h170l-371 -860v-477h-154v477zM543 1772h170v-178h-170v178zM225 1772h170v-178h-170v178z" />
    <glyph glyph-name="currency" unicode="&#xa4;" horiz-adv-x="1241" 
d="M944 887q0 133 -94 227t-227 94q-134 0 -230 -94.5t-96 -226.5q0 -134 96 -230t230 -96q133 0 227 96t94 230zM360 1210q60 46 124.5 68t136.5 22t138.5 -22.5t123.5 -67.5l204 205l66 -65l-205 -205q44 -59 66 -125t22 -135t-22 -134t-66 -124l205 -207l-66 -66
l-204 205q-59 -45 -125 -67.5t-137 -22.5t-135 22t-126 68l-204 -205l-66 66l205 207q-45 61 -67.5 125.5t-22.5 132.5t22.5 133.5t67.5 126.5l-205 205l66 65z" />
    <glyph glyph-name="Acircumflex" unicode="&#xc2;" horiz-adv-x="1024" 
d="M397 737l-71 -278h362l-74 278q-29 115 -49 232t-30 235h-64q-10 -129 -28 -245t-46 -222zM406 1337h208l353 -1337h-174l-91 340h-387l-96 -340h-162zM487 1676q-28 -73 -69 -118t-101 -69h-92v58q49 26 98 85.5t89 141.5h198q34 -75 82.5 -134.5t104.5 -92.5v-58h-90
q-60 24 -99.5 66.5t-70.5 120.5h-50z" />
    <glyph glyph-name="Ecircumflex" unicode="&#xca;" 
d="M854 0h-713v1337h686v-114h-534v-453h506v-121h-506v-530h561v-119zM450 1676q-28 -73 -69 -118t-101 -69h-92v58q49 26 98 85.5t89 141.5h198q34 -75 82.5 -134.5t104.5 -92.5v-58h-90q-60 24 -99.5 66.5t-70.5 120.5h-50z" />
    <glyph glyph-name="Aacute" unicode="&#xc1;" horiz-adv-x="1024" 
d="M397 737l-71 -278h362l-74 278q-29 115 -49 232t-30 235h-64q-10 -129 -28 -245t-46 -222zM406 1337h208l353 -1337h-174l-91 340h-387l-96 -340h-162zM784 1774v-55q-84 -45 -160.5 -103.5t-140.5 -126.5h-104v35q62 52 114.5 114.5t94.5 135.5h196z" />
    <glyph glyph-name="Edieresis" unicode="&#xcb;" 
d="M854 0h-713v1337h686v-114h-534v-453h506v-121h-506v-530h561v-119zM549 1772h170v-178h-170v178zM231 1772h170v-178h-170v178z" />
    <glyph glyph-name="Egrave" unicode="&#xc8;" 
d="M854 0h-713v1337h686v-114h-534v-453h506v-121h-506v-530h561v-119zM211 1774h196q38 -69 90 -131.5t119 -118.5v-35h-104q-64 68 -140 126.5t-161 103.5v55z" />
    <glyph glyph-name="Iacute" unicode="&#xcd;" horiz-adv-x="682" 
d="M418 100h209v-100h-570v100h209v1137h-209v100h570v-100h-209v-1137zM614 1774v-55q-84 -45 -160.5 -103.5t-140.5 -126.5h-104v35q62 52 114.5 114.5t94.5 135.5h196z" />
    <glyph glyph-name="Icircumflex" unicode="&#xce;" horiz-adv-x="682" 
d="M418 100h209v-100h-570v100h209v1137h-209v100h570v-100h-209v-1137zM317 1676q-28 -73 -69 -118t-101 -69h-92v58q49 26 98 85.5t89 141.5h198q34 -75 82.5 -134.5t104.5 -92.5v-58h-90q-60 24 -99.5 66.5t-70.5 120.5h-50z" />
    <glyph glyph-name="Idieresis" unicode="&#xcf;" horiz-adv-x="682" 
d="M418 100h209v-100h-570v100h209v1137h-209v100h570v-100h-209v-1137zM416 1772h170v-178h-170v178zM98 1772h170v-178h-170v178z" />
    <glyph glyph-name="Igrave" unicode="&#xcc;" horiz-adv-x="682" 
d="M418 100h209v-100h-570v100h209v1137h-209v100h570v-100h-209v-1137zM78 1774h196q38 -69 90 -131.5t119 -118.5v-35h-104q-64 68 -140 126.5t-161 103.5v55z" />
    <glyph glyph-name="Oacute" unicode="&#xd3;" horiz-adv-x="1139" 
d="M569 90q161 0 242.5 137t81.5 406q0 320 -78 467t-246 147q-164 0 -244.5 -143.5t-80.5 -433.5q0 -294 80.5 -437t244.5 -143zM571 1366q238 0 360 -174.5t122 -515.5q0 -352 -121 -528.5t-361 -176.5q-239 0 -362 178t-123 523q0 344 122.5 519t362.5 175zM841 1774v-55
q-84 -45 -160.5 -103.5t-140.5 -126.5h-104v35q62 52 114.5 114.5t94.5 135.5h196z" />
    <glyph glyph-name="Ocircumflex" unicode="&#xd4;" horiz-adv-x="1139" 
d="M569 90q161 0 242.5 137t81.5 406q0 320 -78 467t-246 147q-164 0 -244.5 -143.5t-80.5 -433.5q0 -294 80.5 -437t244.5 -143zM571 1366q238 0 360 -174.5t122 -515.5q0 -352 -121 -528.5t-361 -176.5q-239 0 -362 178t-123 523q0 344 122.5 519t362.5 175zM544 1676
q-28 -73 -69 -118t-101 -69h-92v58q49 26 98 85.5t89 141.5h198q34 -75 82.5 -134.5t104.5 -92.5v-58h-90q-60 24 -99.5 66.5t-70.5 120.5h-50z" />
    <glyph glyph-name="apple" unicode="&#xf000;" horiz-adv-x="1618" 
d="M836 1216q-1 6 -1.5 14t-0.5 23q0 124 95 229.5t236 131.5q1 -10 1.5 -23t0.5 -39q0 -131 -103.5 -234.5t-203.5 -103.5h-8q-3 0 -7.5 1t-8.5 1zM1505 403q-114 -247 -205 -342.5t-204 -95.5q-50 0 -131.5 33t-122.5 33q-45 0 -131 -33t-127 -33q-64 0 -128.5 44
t-129.5 132q-102 140 -157.5 295.5t-55.5 300.5q0 219 125 356.5t323 137.5q68 0 155 -34t124 -34q34 0 121.5 34t152.5 34q111 0 199 -39.5t160 -122.5q-102 -65 -151.5 -145.5t-49.5 -182.5q0 -113 60 -200t173 -138z" />
    <glyph glyph-name="Ograve" unicode="&#xd2;" horiz-adv-x="1139" 
d="M569 90q161 0 242.5 137t81.5 406q0 320 -78 467t-246 147q-164 0 -244.5 -143.5t-80.5 -433.5q0 -294 80.5 -437t244.5 -143zM571 1366q238 0 360 -174.5t122 -515.5q0 -352 -121 -528.5t-361 -176.5q-239 0 -362 178t-123 523q0 344 122.5 519t362.5 175zM305 1774h196
q38 -69 90 -131.5t119 -118.5v-35h-104q-64 68 -140 126.5t-161 103.5v55z" />
    <glyph glyph-name="Uacute" unicode="&#xda;" horiz-adv-x="1110" 
d="M295 1337v-862q0 -214 59 -295.5t205 -81.5q140 0 202 74t62 242v123v800h144v-794q0 -138 -7.5 -217t-23.5 -125q-39 -113 -137 -171.5t-250 -58.5q-142 0 -233.5 56t-139.5 172q-19 46 -27 115t-8 245v778h154zM827 1774v-55q-84 -45 -160.5 -103.5t-140.5 -126.5h-104
v35q62 52 114.5 114.5t94.5 135.5h196z" />
    <glyph glyph-name="Ucircumflex" unicode="&#xdb;" horiz-adv-x="1110" 
d="M295 1337v-862q0 -214 59 -295.5t205 -81.5q140 0 202 74t62 242v123v800h144v-794q0 -138 -7.5 -217t-23.5 -125q-39 -113 -137 -171.5t-250 -58.5q-142 0 -233.5 56t-139.5 172q-19 46 -27 115t-8 245v778h154zM530 1676q-28 -73 -69 -118t-101 -69h-92v58
q49 26 98 85.5t89 141.5h198q34 -75 82.5 -134.5t104.5 -92.5v-58h-90q-60 24 -99.5 66.5t-70.5 120.5h-50z" />
    <glyph glyph-name="Ugrave" unicode="&#xd9;" horiz-adv-x="1110" 
d="M295 1337v-862q0 -214 59 -295.5t205 -81.5q140 0 202 74t62 242v123v800h144v-794q0 -138 -7.5 -217t-23.5 -125q-39 -113 -137 -171.5t-250 -58.5q-142 0 -233.5 56t-139.5 172q-19 46 -27 115t-8 245v778h154zM291 1774h196q38 -69 90 -131.5t119 -118.5v-35h-104
q-64 68 -140 126.5t-161 103.5v55z" />
    <glyph glyph-name="dotlessi" unicode="&#x131;" horiz-adv-x="426" 
d="M141 995h144v-995h-144v995z" />
    <glyph glyph-name="circumflex" unicode="&#x2c6;" horiz-adv-x="1024" 
d="M487 1303q-28 -73 -69 -118t-101 -69h-92v58q49 26 98 85.5t89 141.5h198q34 -75 82.5 -134.5t104.5 -92.5v-58h-90q-60 24 -99.5 66.5t-70.5 120.5h-50z" />
    <glyph glyph-name="tilde" unicode="&#x2dc;" horiz-adv-x="1024" 
d="M805 1358q-28 -98 -77.5 -148.5t-117.5 -50.5q-33 0 -88.5 17t-124.5 49q-15 -12 -25.5 -30t-17.5 -42h-125q24 96 74 146.5t123 50.5q48 0 118 -30t91 -36q19 25 28 41t15 33h127z" />
    <glyph glyph-name="macron" unicode="&#xaf;" horiz-adv-x="1024" 
d="M258 1317h508v-119h-508v119z" />
    <glyph glyph-name="breve" unicode="&#x2d8;" horiz-adv-x="1024" 
d="M229 1382h90q11 -67 56.5 -98t136.5 -31t136.5 31t56.5 98h90q-14 -130 -81.5 -189.5t-201.5 -59.5q-132 0 -200.5 60t-82.5 189z" />
    <glyph glyph-name="ring" unicode="&#x2da;" horiz-adv-x="1024" 
d="M512 1415q-43 0 -73.5 -30.5t-30.5 -73.5q0 -44 30.5 -75.5t73.5 -31.5t73.5 31.5t30.5 75.5q0 43 -30.5 73.5t-73.5 30.5zM512 1509q81 0 140 -58.5t59 -139.5q0 -82 -59 -140.5t-140 -58.5q-82 0 -139.5 58t-57.5 141q0 82 57.5 140t139.5 58z" />
    <glyph glyph-name="cedilla" unicode="&#xb8;" horiz-adv-x="1024" 
d="M477 0h70v-96h22q105 0 160 -41t55 -119q0 -82 -60 -124t-179 -42q-41 0 -94 8.5t-142 30.5v80q81 -17 136 -25t96 -8q60 0 88 19.5t28 60.5q0 43 -30 63.5t-92 20.5q-18 0 -31 -0.5t-26 -1.5z" />
    <glyph glyph-name="caron" unicode="&#x2c7;" horiz-adv-x="1024" 
d="M487 1214h50q31 78 70.5 120.5t99.5 66.5h90v-58q-57 -34 -106 -94t-81 -133h-198q-41 82 -90.5 141.5t-96.5 85.5v58h92q60 -24 100.5 -68t69.5 -119z" />
    <glyph glyph-name="sfthyphen" unicode="&#xad;" horiz-adv-x="569" 
d="M72 682h426v-141h-426v141z" />
  </font>
</defs>
</svg>
